<?xml version="1.0" encoding="utf-8" standalone="no"?>
<!DOCTYPE svg PUBLIC "-//W3C//DTD SVG 1.1//EN"
  "http://www.w3.org/Graphics/SVG/1.1/DTD/svg11.dtd">
<svg xmlns:xlink="http://www.w3.org/1999/xlink" width="460.8pt" height="345.6pt" viewBox="0 0 460.8 345.6" xmlns="http://www.w3.org/2000/svg" version="1.1">
 <metadata>
  <rdf:RDF xmlns:dc="http://purl.org/dc/elements/1.1/" xmlns:cc="http://creativecommons.org/ns#" xmlns:rdf="http://www.w3.org/1999/02/22-rdf-syntax-ns#">
   <cc:Work>
    <dc:type rdf:resource="http://purl.org/dc/dcmitype/StillImage"/>
    <dc:date>2025-05-01T11:12:46.782107</dc:date>
    <dc:format>image/svg+xml</dc:format>
    <dc:creator>
     <cc:Agent>
      <dc:title>Matplotlib v3.9.2, https://matplotlib.org/</dc:title>
     </cc:Agent>
    </dc:creator>
   </cc:Work>
  </rdf:RDF>
 </metadata>
 <defs>
  <style type="text/css">*{stroke-linejoin: round; stroke-linecap: butt}</style>
 </defs>
 <g id="figure_1">
  <g id="patch_1">
   <path d="M 0 345.6 
L 460.8 345.6 
L 460.8 0 
L 0 0 
z
" style="fill: #fafafa"/>
  </g>
  <g id="axes_1">
   <g id="patch_2">
    <path d="M 41.16 319.492 
L 450 319.492 
L 450 10.8 
L 41.16 10.8 
z
" style="fill: #fafafa"/>
   </g>
   <g id="matplotlib.axis_1">
    <g id="xtick_1">
     <g id="line2d_1">
      <defs>
       <path id="m28ddc667e0" d="M 0 0 
L 0 -3.5 
" style="stroke: #000000; stroke-width: 0.8"/>
      </defs>
      <g>
       <use xlink:href="#m28ddc667e0" x="41.16" y="319.492" style="stroke: #000000; stroke-width: 0.8"/>
      </g>
     </g>
     <g id="text_1">
      <text style="font: 10px 'DejaVu Sans', 'Bitstream Vera Sans', 'Computer Modern Sans Serif', 'Lucida Grande', 'Verdana', 'Geneva', 'Lucid', 'Arial', 'Helvetica', 'Avant Garde', sans-serif; text-anchor: middle" x="41.16" y="330.590438" transform="rotate(-0 41.16 330.590438)">0</text>
     </g>
    </g>
    <g id="xtick_2">
     <g id="line2d_2">
      <g>
       <use xlink:href="#m28ddc667e0" x="187.174286" y="319.492" style="stroke: #000000; stroke-width: 0.8"/>
      </g>
     </g>
     <g id="text_2">
      <!-- $t_s$ -->
      <g transform="translate(183.224286 330.590438)">
       <text>
        <tspan style="font: oblique 10px 'DejaVu Sans'" x="0" y="-0.984375">t</tspan>
        <tspan style="font: oblique 7px 'DejaVu Sans'" x="3.920898" y="0.65625">s</tspan>
       </text>
      </g>
     </g>
    </g>
   </g>
   <g id="matplotlib.axis_2">
    <g id="ytick_1">
     <g id="line2d_3">
      <defs>
       <path id="mb632b00490" d="M 0 0 
L 3.5 0 
" style="stroke: #000000; stroke-width: 0.8"/>
      </defs>
      <g>
       <use xlink:href="#mb632b00490" x="41.16" y="319.492" style="stroke: #000000; stroke-width: 0.8"/>
      </g>
     </g>
     <g id="text_3">
      <text style="font: 10px 'DejaVu Sans', 'Bitstream Vera Sans', 'Computer Modern Sans Serif', 'Lucida Grande', 'Verdana', 'Geneva', 'Lucid', 'Arial', 'Helvetica', 'Avant Garde', sans-serif; text-anchor: end" x="37.66" y="323.291219" transform="rotate(-0 37.66 323.291219)">0</text>
     </g>
    </g>
    <g id="ytick_2">
     <g id="line2d_4">
      <g>
       <use xlink:href="#mb632b00490" x="41.16" y="242.319" style="stroke: #000000; stroke-width: 0.8"/>
      </g>
     </g>
     <g id="text_4">
      <text style="font: 10px 'DejaVu Sans', 'Bitstream Vera Sans', 'Computer Modern Sans Serif', 'Lucida Grande', 'Verdana', 'Geneva', 'Lucid', 'Arial', 'Helvetica', 'Avant Garde', sans-serif; text-anchor: end" x="37.66" y="246.118219" transform="rotate(-0 37.66 246.118219)">5</text>
     </g>
    </g>
    <g id="ytick_3">
     <g id="line2d_5">
      <g>
       <use xlink:href="#mb632b00490" x="41.16" y="149.7114" style="stroke: #000000; stroke-width: 0.8"/>
      </g>
     </g>
     <g id="text_5">
      <text style="font: 10px 'DejaVu Sans', 'Bitstream Vera Sans', 'Computer Modern Sans Serif', 'Lucida Grande', 'Verdana', 'Geneva', 'Lucid', 'Arial', 'Helvetica', 'Avant Garde', sans-serif; text-anchor: end" x="37.66" y="153.510619" transform="rotate(-0 37.66 153.510619)">11</text>
     </g>
    </g>
    <g id="ytick_4">
     <g id="line2d_6">
      <g>
       <use xlink:href="#mb632b00490" x="41.16" y="87.973" style="stroke: #000000; stroke-width: 0.8"/>
      </g>
     </g>
     <g id="text_6">
      <text style="font: 10px 'DejaVu Sans', 'Bitstream Vera Sans', 'Computer Modern Sans Serif', 'Lucida Grande', 'Verdana', 'Geneva', 'Lucid', 'Arial', 'Helvetica', 'Avant Garde', sans-serif; text-anchor: end" x="37.66" y="91.772219" transform="rotate(-0 37.66 91.772219)">15</text>
     </g>
    </g>
    <g id="text_7">
     <text style="font: 10px 'DejaVu Sans', 'Bitstream Vera Sans', 'Computer Modern Sans Serif', 'Lucida Grande', 'Verdana', 'Geneva', 'Lucid', 'Arial', 'Helvetica', 'Avant Garde', sans-serif; text-anchor: middle" x="18.855313" y="165.146" transform="rotate(-90 18.855313 165.146)">P/E</text>
    </g>
   </g>
   <g id="line2d_7">
    <path d="M 41.16 242.319 
L 70.362857 242.319 
L 99.565714 242.319 
L 128.768571 242.319 
L 157.971429 242.319 
L 187.174286 87.973 
L 216.377143 87.973 
L 245.58 87.973 
L 274.782857 149.7114 
L 303.985714 149.7114 
L 333.188571 149.7114 
L 362.391429 149.7114 
L 391.594286 149.7114 
L 420.797143 149.7114 
L 450 149.7114 
" clip-path="url(#p88c26fa566)" style="fill: none; stroke: #1f77b4; stroke-width: 1.5; stroke-linecap: square"/>
    <defs>
     <path id="m0358df6562" d="M 0 3 
C 0.795609 3 1.55874 2.683901 2.12132 2.12132 
C 2.683901 1.55874 3 0.795609 3 0 
C 3 -0.795609 2.683901 -1.55874 2.12132 -2.12132 
C 1.55874 -2.683901 0.795609 -3 0 -3 
C -0.795609 -3 -1.55874 -2.683901 -2.12132 -2.12132 
C -2.683901 -1.55874 -3 -0.795609 -3 0 
C -3 0.795609 -2.683901 1.55874 -2.12132 2.12132 
C -1.55874 2.683901 -0.795609 3 0 3 
z
" style="stroke: #1f77b4"/>
    </defs>
    <g clip-path="url(#p88c26fa566)">
     <use xlink:href="#m0358df6562" x="41.16" y="242.319" style="fill: #1f77b4; stroke: #1f77b4"/>
     <use xlink:href="#m0358df6562" x="70.362857" y="242.319" style="fill: #1f77b4; stroke: #1f77b4"/>
     <use xlink:href="#m0358df6562" x="99.565714" y="242.319" style="fill: #1f77b4; stroke: #1f77b4"/>
     <use xlink:href="#m0358df6562" x="128.768571" y="242.319" style="fill: #1f77b4; stroke: #1f77b4"/>
     <use xlink:href="#m0358df6562" x="157.971429" y="242.319" style="fill: #1f77b4; stroke: #1f77b4"/>
     <use xlink:href="#m0358df6562" x="187.174286" y="87.973" style="fill: #1f77b4; stroke: #1f77b4"/>
     <use xlink:href="#m0358df6562" x="216.377143" y="87.973" style="fill: #1f77b4; stroke: #1f77b4"/>
     <use xlink:href="#m0358df6562" x="245.58" y="87.973" style="fill: #1f77b4; stroke: #1f77b4"/>
     <use xlink:href="#m0358df6562" x="274.782857" y="149.7114" style="fill: #1f77b4; stroke: #1f77b4"/>
     <use xlink:href="#m0358df6562" x="303.985714" y="149.7114" style="fill: #1f77b4; stroke: #1f77b4"/>
     <use xlink:href="#m0358df6562" x="333.188571" y="149.7114" style="fill: #1f77b4; stroke: #1f77b4"/>
     <use xlink:href="#m0358df6562" x="362.391429" y="149.7114" style="fill: #1f77b4; stroke: #1f77b4"/>
     <use xlink:href="#m0358df6562" x="391.594286" y="149.7114" style="fill: #1f77b4; stroke: #1f77b4"/>
     <use xlink:href="#m0358df6562" x="420.797143" y="149.7114" style="fill: #1f77b4; stroke: #1f77b4"/>
     <use xlink:href="#m0358df6562" x="450" y="149.7114" style="fill: #1f77b4; stroke: #1f77b4"/>
    </g>
   </g>
   <g id="line2d_8">
    <path d="M 41.16 242.319 
L 70.362857 242.319 
L 99.565714 242.319 
L 128.768571 242.319 
L 157.971429 242.319 
L 187.174286 242.319 
L 216.377143 211.4498 
L 245.58 180.5806 
L 274.782857 149.7114 
L 303.985714 149.7114 
L 333.188571 149.7114 
L 362.391429 149.7114 
L 391.594286 149.7114 
L 420.797143 149.7114 
L 450 149.7114 
" clip-path="url(#p88c26fa566)" style="fill: none; stroke: #ff7f0e; stroke-width: 1.5; stroke-linecap: square"/>
    <defs>
     <path id="m3790a45b88" d="M 0 3 
C 0.795609 3 1.55874 2.683901 2.12132 2.12132 
C 2.683901 1.55874 3 0.795609 3 0 
C 3 -0.795609 2.683901 -1.55874 2.12132 -2.12132 
C 1.55874 -2.683901 0.795609 -3 0 -3 
C -0.795609 -3 -1.55874 -2.683901 -2.12132 -2.12132 
C -2.683901 -1.55874 -3 -0.795609 -3 0 
C -3 0.795609 -2.683901 1.55874 -2.12132 2.12132 
C -1.55874 2.683901 -0.795609 3 0 3 
z
" style="stroke: #ff7f0e"/>
    </defs>
    <g clip-path="url(#p88c26fa566)">
     <use xlink:href="#m3790a45b88" x="41.16" y="242.319" style="fill: #ff7f0e; stroke: #ff7f0e"/>
     <use xlink:href="#m3790a45b88" x="70.362857" y="242.319" style="fill: #ff7f0e; stroke: #ff7f0e"/>
     <use xlink:href="#m3790a45b88" x="99.565714" y="242.319" style="fill: #ff7f0e; stroke: #ff7f0e"/>
     <use xlink:href="#m3790a45b88" x="128.768571" y="242.319" style="fill: #ff7f0e; stroke: #ff7f0e"/>
     <use xlink:href="#m3790a45b88" x="157.971429" y="242.319" style="fill: #ff7f0e; stroke: #ff7f0e"/>
     <use xlink:href="#m3790a45b88" x="187.174286" y="242.319" style="fill: #ff7f0e; stroke: #ff7f0e"/>
     <use xlink:href="#m3790a45b88" x="216.377143" y="211.4498" style="fill: #ff7f0e; stroke: #ff7f0e"/>
     <use xlink:href="#m3790a45b88" x="245.58" y="180.5806" style="fill: #ff7f0e; stroke: #ff7f0e"/>
     <use xlink:href="#m3790a45b88" x="274.782857" y="149.7114" style="fill: #ff7f0e; stroke: #ff7f0e"/>
     <use xlink:href="#m3790a45b88" x="303.985714" y="149.7114" style="fill: #ff7f0e; stroke: #ff7f0e"/>
     <use xlink:href="#m3790a45b88" x="333.188571" y="149.7114" style="fill: #ff7f0e; stroke: #ff7f0e"/>
     <use xlink:href="#m3790a45b88" x="362.391429" y="149.7114" style="fill: #ff7f0e; stroke: #ff7f0e"/>
     <use xlink:href="#m3790a45b88" x="391.594286" y="149.7114" style="fill: #ff7f0e; stroke: #ff7f0e"/>
     <use xlink:href="#m3790a45b88" x="420.797143" y="149.7114" style="fill: #ff7f0e; stroke: #ff7f0e"/>
     <use xlink:href="#m3790a45b88" x="450" y="149.7114" style="fill: #ff7f0e; stroke: #ff7f0e"/>
    </g>
   </g>
   <g id="line2d_9">
    <path d="M 41.16 242.319 
L 70.362857 242.319 
L 99.565714 242.319 
L 128.768571 242.319 
L 157.971429 242.319 
L 187.174286 242.319 
L 216.377143 211.4498 
L 245.58 180.5806 
L 274.782857 149.7114 
L 303.985714 134.2768 
L 333.188571 118.8422 
L 362.391429 134.2768 
L 391.594286 149.7114 
L 420.797143 149.7114 
L 450 149.7114 
" clip-path="url(#p88c26fa566)" style="fill: none; stroke: #2ca02c; stroke-width: 1.5; stroke-linecap: square"/>
    <defs>
     <path id="ma58a5c7589" d="M 0 3 
C 0.795609 3 1.55874 2.683901 2.12132 2.12132 
C 2.683901 1.55874 3 0.795609 3 0 
C 3 -0.795609 2.683901 -1.55874 2.12132 -2.12132 
C 1.55874 -2.683901 0.795609 -3 0 -3 
C -0.795609 -3 -1.55874 -2.683901 -2.12132 -2.12132 
C -2.683901 -1.55874 -3 -0.795609 -3 0 
C -3 0.795609 -2.683901 1.55874 -2.12132 2.12132 
C -1.55874 2.683901 -0.795609 3 0 3 
z
" style="stroke: #2ca02c"/>
    </defs>
    <g clip-path="url(#p88c26fa566)">
     <use xlink:href="#ma58a5c7589" x="41.16" y="242.319" style="fill: #2ca02c; stroke: #2ca02c"/>
     <use xlink:href="#ma58a5c7589" x="70.362857" y="242.319" style="fill: #2ca02c; stroke: #2ca02c"/>
     <use xlink:href="#ma58a5c7589" x="99.565714" y="242.319" style="fill: #2ca02c; stroke: #2ca02c"/>
     <use xlink:href="#ma58a5c7589" x="128.768571" y="242.319" style="fill: #2ca02c; stroke: #2ca02c"/>
     <use xlink:href="#ma58a5c7589" x="157.971429" y="242.319" style="fill: #2ca02c; stroke: #2ca02c"/>
     <use xlink:href="#ma58a5c7589" x="187.174286" y="242.319" style="fill: #2ca02c; stroke: #2ca02c"/>
     <use xlink:href="#ma58a5c7589" x="216.377143" y="211.4498" style="fill: #2ca02c; stroke: #2ca02c"/>
     <use xlink:href="#ma58a5c7589" x="245.58" y="180.5806" style="fill: #2ca02c; stroke: #2ca02c"/>
     <use xlink:href="#ma58a5c7589" x="274.782857" y="149.7114" style="fill: #2ca02c; stroke: #2ca02c"/>
     <use xlink:href="#ma58a5c7589" x="303.985714" y="134.2768" style="fill: #2ca02c; stroke: #2ca02c"/>
     <use xlink:href="#ma58a5c7589" x="333.188571" y="118.8422" style="fill: #2ca02c; stroke: #2ca02c"/>
     <use xlink:href="#ma58a5c7589" x="362.391429" y="134.2768" style="fill: #2ca02c; stroke: #2ca02c"/>
     <use xlink:href="#ma58a5c7589" x="391.594286" y="149.7114" style="fill: #2ca02c; stroke: #2ca02c"/>
     <use xlink:href="#ma58a5c7589" x="420.797143" y="149.7114" style="fill: #2ca02c; stroke: #2ca02c"/>
     <use xlink:href="#ma58a5c7589" x="450" y="149.7114" style="fill: #2ca02c; stroke: #2ca02c"/>
    </g>
   </g>
   <g id="patch_3">
    <path d="M 41.16 319.492 
L 41.16 10.8 
" style="fill: none; stroke: #000000; stroke-width: 0.8; stroke-linejoin: miter; stroke-linecap: square"/>
   </g>
   <g id="patch_4">
    <path d="M 450 319.492 
L 450 10.8 
" style="fill: none; stroke: #000000; stroke-width: 0.8; stroke-linejoin: miter; stroke-linecap: square"/>
   </g>
   <g id="patch_5">
    <path d="M 41.16 319.492 
L 450 319.492 
" style="fill: none; stroke: #000000; stroke-width: 0.8; stroke-linejoin: miter; stroke-linecap: square"/>
   </g>
   <g id="patch_6">
    <path d="M 41.16 10.8 
L 450 10.8 
" style="fill: none; stroke: #000000; stroke-width: 0.8; stroke-linejoin: miter; stroke-linecap: square"/>
   </g>
   <g id="legend_1">
    <g id="line2d_10">
     <path d="M 332.626562 23.898438 
L 342.626562 23.898438 
L 352.626562 23.898438 
" style="fill: none; stroke: #1f77b4; stroke-width: 1.5; stroke-linecap: square"/>
     <g>
      <use xlink:href="#m0358df6562" x="342.626562" y="23.898438" style="fill: #1f77b4; stroke: #1f77b4"/>
     </g>
    </g>
    <g id="text_8">
     <text style="font: 10px 'DejaVu Sans', 'Bitstream Vera Sans', 'Computer Modern Sans Serif', 'Lucida Grande', 'Verdana', 'Geneva', 'Lucid', 'Arial', 'Helvetica', 'Avant Garde', sans-serif; text-anchor: start" x="360.626562" y="27.398438" transform="rotate(-0 360.626562 27.398438)">Input</text>
    </g>
    <g id="line2d_11">
     <path d="M 332.626562 38.576563 
L 342.626562 38.576563 
L 352.626562 38.576563 
" style="fill: none; stroke: #ff7f0e; stroke-width: 1.5; stroke-linecap: square"/>
     <g>
      <use xlink:href="#m3790a45b88" x="342.626562" y="38.576563" style="fill: #ff7f0e; stroke: #ff7f0e"/>
     </g>
    </g>
    <g id="text_9">
     <text style="font: 10px 'DejaVu Sans', 'Bitstream Vera Sans', 'Computer Modern Sans Serif', 'Lucida Grande', 'Verdana', 'Geneva', 'Lucid', 'Arial', 'Helvetica', 'Avant Garde', sans-serif; text-anchor: start" x="360.626562" y="42.076563" transform="rotate(-0 360.626562 42.076563)">Output</text>
    </g>
    <g id="line2d_12">
     <path d="M 332.626562 53.254687 
L 342.626562 53.254687 
L 352.626562 53.254687 
" style="fill: none; stroke: #2ca02c; stroke-width: 1.5; stroke-linecap: square"/>
     <g>
      <use xlink:href="#ma58a5c7589" x="342.626562" y="53.254687" style="fill: #2ca02c; stroke: #2ca02c"/>
     </g>
    </g>
    <g id="text_10">
     <text style="font: 10px 'DejaVu Sans', 'Bitstream Vera Sans', 'Computer Modern Sans Serif', 'Lucida Grande', 'Verdana', 'Geneva', 'Lucid', 'Arial', 'Helvetica', 'Avant Garde', sans-serif; text-anchor: start" x="360.626562" y="56.754687" transform="rotate(-0 360.626562 56.754687)">Moving Average</text>
    </g>
   </g>
  </g>
 </g>
 <defs>
  <clipPath id="p88c26fa566">
   <rect x="41.16" y="10.8" width="408.84" height="308.692"/>
  </clipPath>
 </defs>
</svg>
